# xmcd CD database file
#
# Track frame offsets:
#	150
#	13700
#	26748
#	39574
#	59247
#	71874
#	80675
#	91518
#	103661
#	118618
#	137132
#	157125
#	166392
#	178712
#	201107
#	214477
#	229217
#	244210
#	258679
#	273905
#
# Disc length: 3778 seconds
#
# Revision: 0
# Processed by: cddbd v1.5.2PL0 Copyright (c) Steve Scherf et al.
# Submitted via: CDex 1.51
#
DISCID=310ec014
DTITLE=Various Artist - The Essential Jazz Collection
DYEAR=2006
DGENRE=Jazz
TTITLE0=The World's Jazz Crazy, Lawdy, So am I - Louise Armstrong with Trixie Smith
TTITLE1=At a Perfume Counter - Dave Brubeck
TTITLE2=Lullaby of Birdland - Ella Fitzgerald
TTITLE3=Stokholm Sweetenin' - Clif Brown and Ant Farmer
TTITLE4=All Night Long - Helen Humes
TTITLE5=Mo Pas Lemme Cas - Humphrey Lytlleton
TTITLE6=I Got Rythm - Ben Light
TTITLE7=Saph - Illinois Jacquet
TTITLE8=Gingersnap - Gil Melle Quintet
TTITLE9=Hymn of the Orient - Clifford Brown Sextet
TTITLE10=Daylie Double - Jay Jay Johnson
TTITLE11=Gone With The Wind - Julie London
TTITLE12=Lullaby in Blue - Benny Carter
TTITLE13=Emperor Norton's Hunch - Merseysippi Jazz Band
TTITLE14=Flyin' Home - Babs Gonzales with Little Johnny Griffin
TTITLE15=Moanin' Low - Dinah Shore
TTITLE16=Alabama Jubilee - Firehouse Five plus Two
TTITLE17=No More Crying Blues - Mabel Scott
TTITLE18=Gloria - Kenny Drew Trio
TTITLE19=52nd Street Theme - Charlie Parker
EXTD=YEAR: 2006
EXTT0=
EXTT1=
EXTT2=
EXTT3=
EXTT4=
EXTT5=
EXTT6=
EXTT7=
EXTT8=
EXTT9=
EXTT10=
EXTT11=
EXTT12=
EXTT13=
EXTT14=
EXTT15=
EXTT16=
EXTT17=
EXTT18=
EXTT19=
PLAYORDER=
